<?xml version="1.0" encoding="UTF-8" standalone="no"?>
<!DOCTYPE svg PUBLIC "-//W3C//DTD SVG 1.1//EN"
 "http://www.w3.org/Graphics/SVG/1.1/DTD/svg11.dtd">
<!-- Generated by graphviz version 2.38.0 (20140413.2041)
 -->
<!-- Title: D Pages: 1 -->
<svg width="3297pt" height="260pt"
 viewBox="0.00 0.00 3297.00 260.00" xmlns="http://www.w3.org/2000/svg" xmlns:xlink="http://www.w3.org/1999/xlink">
<g id="graph0" class="graph" transform="scale(1 1) rotate(0) translate(4 256)">
<title>D</title>
<polygon fill="white" stroke="none" points="-4,4 -4,-256 3293,-256 3293,4 -4,4"/>
<!-- ex0 -->
<g id="node1" class="node"><title>ex0</title>
<polygon fill="none" stroke="black" points="1881,-252 1747,-252 1747,-216 1881,-216 1881,-252"/>
<text text-anchor="middle" x="1814" y="-230.3" font-family="Times New Roman,serif" font-size="14.00"> MAIN PROGRAM </text>
</g>
<!-- e0 -->
<g id="node2" class="node"><title>e0</title>
<polygon fill="none" stroke="black" points="353,-180 211,-180 211,-144 353,-144 353,-180"/>
<text text-anchor="middle" x="282" y="-158.3" font-family="Times New Roman,serif" font-size="14.00">TABLA &#45; Estudiantes </text>
</g>
<!-- ex0&#45;&gt;e0 -->
<g id="edge1" class="edge"><title>ex0&#45;&gt;e0</title>
<path fill="none" stroke="black" d="M1746.72,-232.322C1545.81,-229.89 932.68,-219.519 426,-180 405.711,-178.418 383.876,-176.139 363.495,-173.762"/>
<polygon fill="black" stroke="black" points="363.646,-170.256 353.303,-172.552 362.821,-177.207 363.646,-170.256"/>
</g>
<!-- e4 -->
<g id="node6" class="node"><title>e4</title>
<polygon fill="none" stroke="black" points="671,-180 435,-180 435,-144 671,-144 671,-180"/>
<text text-anchor="middle" x="553" y="-158.3" font-family="Times New Roman,serif" font-size="14.00">INSERTAR EN TABLA &#45; Estudiantes </text>
</g>
<!-- ex0&#45;&gt;e4 -->
<g id="edge5" class="edge"><title>ex0&#45;&gt;e4</title>
<path fill="none" stroke="black" d="M1746.99,-231.649C1572.46,-227.74 1089.58,-214.42 689,-180 686.459,-179.782 683.892,-179.552 681.306,-179.312"/>
<polygon fill="black" stroke="black" points="681.543,-175.818 671.252,-178.338 680.868,-182.786 681.543,-175.818"/>
</g>
<!-- e9 -->
<g id="node11" class="node"><title>e9</title>
<polygon fill="none" stroke="black" points="934,-180 698,-180 698,-144 934,-144 934,-180"/>
<text text-anchor="middle" x="816" y="-158.3" font-family="Times New Roman,serif" font-size="14.00">INSERTAR EN TABLA &#45; Estudiantes </text>
</g>
<!-- ex0&#45;&gt;e9 -->
<g id="edge10" class="edge"><title>ex0&#45;&gt;e9</title>
<path fill="none" stroke="black" d="M1746.84,-229.153C1608.15,-221.088 1280.05,-201.376 1005,-180 985.401,-178.477 964.671,-176.74 944.401,-174.972"/>
<polygon fill="black" stroke="black" points="944.442,-171.462 934.175,-174.074 943.83,-178.436 944.442,-171.462"/>
</g>
<!-- e14 -->
<g id="node16" class="node"><title>e14</title>
<polygon fill="none" stroke="black" points="1250,-180 1014,-180 1014,-144 1250,-144 1250,-180"/>
<text text-anchor="middle" x="1132" y="-158.3" font-family="Times New Roman,serif" font-size="14.00">INSERTAR EN TABLA &#45; Estudiantes </text>
</g>
<!-- ex0&#45;&gt;e14 -->
<g id="edge15" class="edge"><title>ex0&#45;&gt;e14</title>
<path fill="none" stroke="black" d="M1746.99,-226.36C1647.32,-216.454 1454.15,-197.132 1290,-180 1280.33,-178.99 1270.32,-177.937 1260.26,-176.87"/>
<polygon fill="black" stroke="black" points="1260.5,-173.376 1250.19,-175.8 1259.77,-180.337 1260.5,-173.376"/>
</g>
<!-- e19 -->
<g id="node21" class="node"><title>e19</title>
<polygon fill="none" stroke="black" points="1535,-180 1299,-180 1299,-144 1535,-144 1535,-180"/>
<text text-anchor="middle" x="1417" y="-158.3" font-family="Times New Roman,serif" font-size="14.00">INSERTAR EN TABLA &#45; Estudiantes </text>
</g>
<!-- ex0&#45;&gt;e19 -->
<g id="edge20" class="edge"><title>ex0&#45;&gt;e19</title>
<path fill="none" stroke="black" d="M1746.65,-221.125C1685.59,-210.359 1594.56,-194.308 1523.62,-181.799"/>
<polygon fill="black" stroke="black" points="1524.2,-178.349 1513.75,-180.059 1522.99,-185.242 1524.2,-178.349"/>
</g>
<!-- e24 -->
<g id="node26" class="node"><title>e24</title>
<polygon fill="none" stroke="black" points="1805,-180 1569,-180 1569,-144 1805,-144 1805,-180"/>
<text text-anchor="middle" x="1687" y="-158.3" font-family="Times New Roman,serif" font-size="14.00">INSERTAR EN TABLA &#45; Estudiantes </text>
</g>
<!-- ex0&#45;&gt;e24 -->
<g id="edge25" class="edge"><title>ex0&#45;&gt;e24</title>
<path fill="none" stroke="black" d="M1782.93,-215.876C1766.17,-206.639 1745.29,-195.131 1727.3,-185.212"/>
<polygon fill="black" stroke="black" points="1728.63,-181.952 1718.19,-180.19 1725.26,-188.082 1728.63,-181.952"/>
</g>
<!-- e29 -->
<g id="node31" class="node"><title>e29</title>
<polygon fill="none" stroke="black" points="2059,-180 1823,-180 1823,-144 2059,-144 2059,-180"/>
<text text-anchor="middle" x="1941" y="-158.3" font-family="Times New Roman,serif" font-size="14.00">INSERTAR EN TABLA &#45; Estudiantes </text>
</g>
<!-- ex0&#45;&gt;e29 -->
<g id="edge30" class="edge"><title>ex0&#45;&gt;e29</title>
<path fill="none" stroke="black" d="M1845.07,-215.876C1861.83,-206.639 1882.71,-195.131 1900.7,-185.212"/>
<polygon fill="black" stroke="black" points="1902.74,-188.082 1909.81,-180.19 1899.37,-181.952 1902.74,-188.082"/>
</g>
<!-- e34 -->
<g id="node36" class="node"><title>e34</title>
<polygon fill="none" stroke="black" points="2313,-180 2077,-180 2077,-144 2313,-144 2313,-180"/>
<text text-anchor="middle" x="2195" y="-158.3" font-family="Times New Roman,serif" font-size="14.00">INSERTAR EN TABLA &#45; Estudiantes </text>
</g>
<!-- ex0&#45;&gt;e34 -->
<g id="edge35" class="edge"><title>ex0&#45;&gt;e34</title>
<path fill="none" stroke="black" d="M1881.24,-220.647C1939.66,-209.913 2025.18,-194.201 2092.19,-181.89"/>
<polygon fill="black" stroke="black" points="2093.15,-185.271 2102.35,-180.022 2091.89,-178.386 2093.15,-185.271"/>
</g>
<!-- e39 -->
<g id="node41" class="node"><title>e39</title>
<polygon fill="none" stroke="black" points="2567,-180 2331,-180 2331,-144 2567,-144 2567,-180"/>
<text text-anchor="middle" x="2449" y="-158.3" font-family="Times New Roman,serif" font-size="14.00">INSERTAR EN TABLA &#45; Estudiantes </text>
</g>
<!-- ex0&#45;&gt;e39 -->
<g id="edge40" class="edge"><title>ex0&#45;&gt;e39</title>
<path fill="none" stroke="black" d="M1881.04,-226.633C1976.31,-217.445 2156.58,-199.546 2320.44,-180.168"/>
<polygon fill="black" stroke="black" points="2321.19,-183.603 2330.71,-178.949 2320.37,-176.652 2321.19,-183.603"/>
</g>
<!-- e44 -->
<g id="node46" class="node"><title>e44</title>
<polygon fill="none" stroke="black" points="2819,-180 2585,-180 2585,-144 2819,-144 2819,-180"/>
<text text-anchor="middle" x="2702" y="-158.3" font-family="Times New Roman,serif" font-size="14.00">ACTUALIZAR TABLA &#45; Estudiantes </text>
</g>
<!-- ex0&#45;&gt;e44 -->
<g id="edge45" class="edge"><title>ex0&#45;&gt;e44</title>
<path fill="none" stroke="black" d="M1881.14,-229.792C2012.35,-223.204 2312.16,-206.584 2574.88,-180.076"/>
<polygon fill="black" stroke="black" points="2575.4,-183.541 2584.99,-179.048 2574.69,-176.577 2575.4,-183.541"/>
</g>
<!-- e49 -->
<g id="node51" class="node"><title>e49</title>
<polygon fill="none" stroke="black" points="3069,-180 2837,-180 2837,-144 3069,-144 3069,-180"/>
<text text-anchor="middle" x="2953" y="-158.3" font-family="Times New Roman,serif" font-size="14.00">ELIMINAR EN TABLA &#45; estudiantes </text>
</g>
<!-- ex0&#45;&gt;e49 -->
<g id="edge50" class="edge"><title>ex0&#45;&gt;e49</title>
<path fill="none" stroke="black" d="M1881.18,-231.415C2042.42,-227.195 2464.23,-213.693 2826.76,-180.068"/>
<polygon fill="black" stroke="black" points="2827.3,-183.534 2836.93,-179.119 2826.65,-176.564 2827.3,-183.534"/>
</g>
<!-- e50 -->
<g id="node52" class="node"><title>e50</title>
<polygon fill="none" stroke="black" points="3204.5,-180 3087.5,-180 3087.5,-144 3204.5,-144 3204.5,-180"/>
<text text-anchor="middle" x="3146" y="-158.3" font-family="Times New Roman,serif" font-size="14.00">SELECCIONAR </text>
</g>
<!-- ex0&#45;&gt;e50 -->
<g id="edge51" class="edge"><title>ex0&#45;&gt;e50</title>
<path fill="none" stroke="black" d="M1881.31,-231.98C2105.09,-228.312 2823.75,-214.223 3076.92,-179.921"/>
<polygon fill="black" stroke="black" points="3077.76,-183.338 3087.17,-178.483 3076.78,-176.406 3077.76,-183.338"/>
</g>
<!-- e1 -->
<g id="node3" class="node"><title>e1</title>
<polygon fill="none" stroke="black" points="142,-108 0,-108 0,-72 142,-72 142,-108"/>
<text text-anchor="middle" x="71" y="-86.3" font-family="Times New Roman,serif" font-size="14.00"> Id_estudiante&#45; entero </text>
</g>
<!-- e0&#45;&gt;e1 -->
<g id="edge2" class="edge"><title>e0&#45;&gt;e1</title>
<path fill="none" stroke="black" d="M230.653,-143.966C201.044,-134.142 163.626,-121.729 132.459,-111.389"/>
<polygon fill="black" stroke="black" points="133.17,-107.938 122.577,-108.111 130.966,-114.582 133.17,-107.938"/>
</g>
<!-- e2 -->
<g id="node4" class="node"><title>e2</title>
<polygon fill="none" stroke="black" points="277.5,-108 160.5,-108 160.5,-72 277.5,-72 277.5,-108"/>
<text text-anchor="middle" x="219" y="-86.3" font-family="Times New Roman,serif" font-size="14.00"> Nombre&#45; cadena </text>
</g>
<!-- e0&#45;&gt;e2 -->
<g id="edge3" class="edge"><title>e0&#45;&gt;e2</title>
<path fill="none" stroke="black" d="M266.427,-143.697C258.798,-135.22 249.477,-124.864 241.124,-115.583"/>
<polygon fill="black" stroke="black" points="243.685,-113.196 234.394,-108.104 238.482,-117.879 243.685,-113.196"/>
</g>
<!-- e3 -->
<g id="node5" class="node"><title>e3</title>
<polygon fill="none" stroke="black" points="460,-108 296,-108 296,-72 460,-72 460,-108"/>
<text text-anchor="middle" x="378" y="-86.3" font-family="Times New Roman,serif" font-size="14.00"> Fecha_nacimiento&#45; fecha </text>
</g>
<!-- e0&#45;&gt;e3 -->
<g id="edge4" class="edge"><title>e0&#45;&gt;e3</title>
<path fill="none" stroke="black" d="M305.73,-143.697C317.937,-134.796 332.985,-123.823 346.184,-114.199"/>
<polygon fill="black" stroke="black" points="348.525,-116.824 354.543,-108.104 344.4,-111.168 348.525,-116.824"/>
</g>
<!-- e5 -->
<g id="node7" class="node"><title>e5</title>
<polygon fill="none" stroke="black" points="612,-108 478,-108 478,-72 612,-72 612,-108"/>
<text text-anchor="middle" x="545" y="-86.3" font-family="Times New Roman,serif" font-size="14.00">VALORES TABLA </text>
</g>
<!-- e4&#45;&gt;e5 -->
<g id="edge6" class="edge"><title>e4&#45;&gt;e5</title>
<path fill="none" stroke="black" d="M551.022,-143.697C550.141,-135.983 549.081,-126.712 548.099,-118.112"/>
<polygon fill="black" stroke="black" points="551.568,-117.642 546.955,-108.104 544.613,-118.437 551.568,-117.642"/>
</g>
<!-- e6 -->
<g id="node8" class="node"><title>e6</title>
<polygon fill="none" stroke="black" points="350,-36 296,-36 296,-0 350,-0 350,-36"/>
<text text-anchor="middle" x="323" y="-14.3" font-family="Times New Roman,serif" font-size="14.00"> 0 </text>
</g>
<!-- e5&#45;&gt;e6 -->
<g id="edge7" class="edge"><title>e5&#45;&gt;e6</title>
<path fill="none" stroke="black" d="M477.859,-72.7095C444.484,-63.9505 403.526,-52.2103 359.71,-35.9943"/>
<polygon fill="black" stroke="black" points="360.91,-32.7065 350.318,-32.4655 358.448,-39.2592 360.91,-32.7065"/>
</g>
<!-- e7 -->
<g id="node9" class="node"><title>e7</title>
<polygon fill="none" stroke="black" points="484,-36 368,-36 368,-0 484,-0 484,-36"/>
<text text-anchor="middle" x="426" y="-14.3" font-family="Times New Roman,serif" font-size="14.00"> Pepito G?menez </text>
</g>
<!-- e5&#45;&gt;e7 -->
<g id="edge8" class="edge"><title>e5&#45;&gt;e7</title>
<path fill="none" stroke="black" d="M515.889,-71.8761C500.33,-62.7236 480.981,-51.3417 464.224,-41.485"/>
<polygon fill="black" stroke="black" points="465.617,-38.2432 455.223,-36.1898 462.067,-44.2768 465.617,-38.2432"/>
</g>
<!-- e8 -->
<g id="node10" class="node"><title>e8</title>
<polygon fill="none" stroke="black" points="588,-36 502,-36 502,-0 588,-0 588,-36"/>
<text text-anchor="middle" x="545" y="-14.3" font-family="Times New Roman,serif" font-size="14.00"> 02/02/2012 </text>
</g>
<!-- e5&#45;&gt;e8 -->
<g id="edge9" class="edge"><title>e5&#45;&gt;e8</title>
<path fill="none" stroke="black" d="M545,-71.6966C545,-63.9827 545,-54.7125 545,-46.1124"/>
<polygon fill="black" stroke="black" points="548.5,-46.1043 545,-36.1043 541.5,-46.1044 548.5,-46.1043"/>
</g>
<!-- e10 -->
<g id="node12" class="node"><title>e10</title>
<polygon fill="none" stroke="black" points="867,-108 733,-108 733,-72 867,-72 867,-108"/>
<text text-anchor="middle" x="800" y="-86.3" font-family="Times New Roman,serif" font-size="14.00">VALORES TABLA </text>
</g>
<!-- e9&#45;&gt;e10 -->
<g id="edge11" class="edge"><title>e9&#45;&gt;e10</title>
<path fill="none" stroke="black" d="M812.045,-143.697C810.282,-135.983 808.163,-126.712 806.197,-118.112"/>
<polygon fill="black" stroke="black" points="809.55,-117.073 803.91,-108.104 802.726,-118.633 809.55,-117.073"/>
</g>
<!-- e11 -->
<g id="node13" class="node"><title>e11</title>
<polygon fill="none" stroke="black" points="660,-36 606,-36 606,-0 660,-0 660,-36"/>
<text text-anchor="middle" x="633" y="-14.3" font-family="Times New Roman,serif" font-size="14.00"> 1 </text>
</g>
<!-- e10&#45;&gt;e11 -->
<g id="edge12" class="edge"><title>e10&#45;&gt;e11</title>
<path fill="none" stroke="black" d="M756.074,-71.949C732.612,-62.6772 703.09,-50.7513 669.231,-35.9985"/>
<polygon fill="black" stroke="black" points="670.615,-32.7838 660.051,-31.9756 667.806,-39.1952 670.615,-32.7838"/>
</g>
<!-- e12 -->
<g id="node14" class="node"><title>e12</title>
<polygon fill="none" stroke="black" points="800,-36 678,-36 678,-0 800,-0 800,-36"/>
<text text-anchor="middle" x="739" y="-14.3" font-family="Times New Roman,serif" font-size="14.00"> Pepito G?menez1 </text>
</g>
<!-- e10&#45;&gt;e12 -->
<g id="edge13" class="edge"><title>e10&#45;&gt;e12</title>
<path fill="none" stroke="black" d="M784.921,-71.6966C777.608,-63.3046 768.69,-53.0705 760.665,-43.8613"/>
<polygon fill="black" stroke="black" points="763.114,-41.344 753.905,-36.1043 757.836,-45.9429 763.114,-41.344"/>
</g>
<!-- e13 -->
<g id="node15" class="node"><title>e13</title>
<polygon fill="none" stroke="black" points="904,-36 818,-36 818,-0 904,-0 904,-36"/>
<text text-anchor="middle" x="861" y="-14.3" font-family="Times New Roman,serif" font-size="14.00"> 02/07/2012 </text>
</g>
<!-- e10&#45;&gt;e13 -->
<g id="edge14" class="edge"><title>e10&#45;&gt;e13</title>
<path fill="none" stroke="black" d="M815.079,-71.6966C822.392,-63.3046 831.31,-53.0705 839.335,-43.8613"/>
<polygon fill="black" stroke="black" points="842.164,-45.9429 846.095,-36.1043 836.886,-41.344 842.164,-45.9429"/>
</g>
<!-- e15 -->
<g id="node17" class="node"><title>e15</title>
<polygon fill="none" stroke="black" points="1160,-108 1026,-108 1026,-72 1160,-72 1160,-108"/>
<text text-anchor="middle" x="1093" y="-86.3" font-family="Times New Roman,serif" font-size="14.00">VALORES TABLA </text>
</g>
<!-- e14&#45;&gt;e15 -->
<g id="edge16" class="edge"><title>e14&#45;&gt;e15</title>
<path fill="none" stroke="black" d="M1122.36,-143.697C1117.87,-135.644 1112.44,-125.894 1107.48,-116.982"/>
<polygon fill="black" stroke="black" points="1110.45,-115.137 1102.53,-108.104 1104.34,-118.544 1110.45,-115.137"/>
</g>
<!-- e16 -->
<g id="node18" class="node"><title>e16</title>
<polygon fill="none" stroke="black" points="976,-36 922,-36 922,-0 976,-0 976,-36"/>
<text text-anchor="middle" x="949" y="-14.3" font-family="Times New Roman,serif" font-size="14.00"> 2 </text>
</g>
<!-- e15&#45;&gt;e16 -->
<g id="edge17" class="edge"><title>e15&#45;&gt;e16</title>
<path fill="none" stroke="black" d="M1057.77,-71.8761C1035.77,-61.1805 1007.51,-47.4404 985.303,-36.6474"/>
<polygon fill="black" stroke="black" points="986.719,-33.444 976.195,-32.2198 983.659,-39.7396 986.719,-33.444"/>
</g>
<!-- e17 -->
<g id="node19" class="node"><title>e17</title>
<polygon fill="none" stroke="black" points="1116,-36 994,-36 994,-0 1116,-0 1116,-36"/>
<text text-anchor="middle" x="1055" y="-14.3" font-family="Times New Roman,serif" font-size="14.00"> Pepito G?menez2 </text>
</g>
<!-- e15&#45;&gt;e17 -->
<g id="edge18" class="edge"><title>e15&#45;&gt;e17</title>
<path fill="none" stroke="black" d="M1083.61,-71.6966C1079.24,-63.6436 1073.94,-53.8945 1069.1,-44.9824"/>
<polygon fill="black" stroke="black" points="1072.13,-43.223 1064.29,-36.1043 1065.98,-46.5627 1072.13,-43.223"/>
</g>
<!-- e18 -->
<g id="node20" class="node"><title>e18</title>
<polygon fill="none" stroke="black" points="1220,-36 1134,-36 1134,-0 1220,-0 1220,-36"/>
<text text-anchor="middle" x="1177" y="-14.3" font-family="Times New Roman,serif" font-size="14.00"> 02/08/2012 </text>
</g>
<!-- e15&#45;&gt;e18 -->
<g id="edge19" class="edge"><title>e15&#45;&gt;e18</title>
<path fill="none" stroke="black" d="M1113.76,-71.6966C1124.24,-62.9655 1137.11,-52.2405 1148.5,-42.7503"/>
<polygon fill="black" stroke="black" points="1151.03,-45.195 1156.47,-36.1043 1146.55,-39.8174 1151.03,-45.195"/>
</g>
<!-- e20 -->
<g id="node22" class="node"><title>e20</title>
<polygon fill="none" stroke="black" points="1461,-108 1327,-108 1327,-72 1461,-72 1461,-108"/>
<text text-anchor="middle" x="1394" y="-86.3" font-family="Times New Roman,serif" font-size="14.00">VALORES TABLA </text>
</g>
<!-- e19&#45;&gt;e20 -->
<g id="edge21" class="edge"><title>e19&#45;&gt;e20</title>
<path fill="none" stroke="black" d="M1411.31,-143.697C1408.75,-135.898 1405.67,-126.509 1402.82,-117.829"/>
<polygon fill="black" stroke="black" points="1406.07,-116.512 1399.62,-108.104 1399.42,-118.697 1406.07,-116.512"/>
</g>
<!-- e21 -->
<g id="node23" class="node"><title>e21</title>
<polygon fill="none" stroke="black" points="1292,-36 1238,-36 1238,-0 1292,-0 1292,-36"/>
<text text-anchor="middle" x="1265" y="-14.3" font-family="Times New Roman,serif" font-size="14.00"> 3 </text>
</g>
<!-- e20&#45;&gt;e21 -->
<g id="edge22" class="edge"><title>e20&#45;&gt;e21</title>
<path fill="none" stroke="black" d="M1362.44,-71.8761C1343.9,-61.8129 1320.39,-49.0546 1301.1,-38.5917"/>
<polygon fill="black" stroke="black" points="1302.76,-35.5063 1292.3,-33.8131 1299.42,-41.6588 1302.76,-35.5063"/>
</g>
<!-- e22 -->
<g id="node24" class="node"><title>e22</title>
<polygon fill="none" stroke="black" points="1432,-36 1310,-36 1310,-0 1432,-0 1432,-36"/>
<text text-anchor="middle" x="1371" y="-14.3" font-family="Times New Roman,serif" font-size="14.00"> Pepito G?menez3 </text>
</g>
<!-- e20&#45;&gt;e22 -->
<g id="edge23" class="edge"><title>e20&#45;&gt;e22</title>
<path fill="none" stroke="black" d="M1388.31,-71.6966C1385.75,-63.8979 1382.67,-54.5085 1379.82,-45.8292"/>
<polygon fill="black" stroke="black" points="1383.07,-44.5121 1376.62,-36.1043 1376.42,-46.6972 1383.07,-44.5121"/>
</g>
<!-- e23 -->
<g id="node25" class="node"><title>e23</title>
<polygon fill="none" stroke="black" points="1536,-36 1450,-36 1450,-0 1536,-0 1536,-36"/>
<text text-anchor="middle" x="1493" y="-14.3" font-family="Times New Roman,serif" font-size="14.00"> 02/09/2012 </text>
</g>
<!-- e20&#45;&gt;e23 -->
<g id="edge24" class="edge"><title>e20&#45;&gt;e23</title>
<path fill="none" stroke="black" d="M1418.22,-71.8761C1430.92,-62.8931 1446.66,-51.7625 1460.42,-42.0341"/>
<polygon fill="black" stroke="black" points="1462.54,-44.8209 1468.69,-36.1898 1458.5,-39.1053 1462.54,-44.8209"/>
</g>
<!-- e25 -->
<g id="node27" class="node"><title>e25</title>
<polygon fill="none" stroke="black" points="1754,-108 1620,-108 1620,-72 1754,-72 1754,-108"/>
<text text-anchor="middle" x="1687" y="-86.3" font-family="Times New Roman,serif" font-size="14.00">VALORES TABLA </text>
</g>
<!-- e24&#45;&gt;e25 -->
<g id="edge26" class="edge"><title>e24&#45;&gt;e25</title>
<path fill="none" stroke="black" d="M1687,-143.697C1687,-135.983 1687,-126.712 1687,-118.112"/>
<polygon fill="black" stroke="black" points="1690.5,-118.104 1687,-108.104 1683.5,-118.104 1690.5,-118.104"/>
</g>
<!-- e26 -->
<g id="node28" class="node"><title>e26</title>
<polygon fill="none" stroke="black" points="1608,-36 1554,-36 1554,-0 1608,-0 1608,-36"/>
<text text-anchor="middle" x="1581" y="-14.3" font-family="Times New Roman,serif" font-size="14.00"> 4 </text>
</g>
<!-- e25&#45;&gt;e26 -->
<g id="edge27" class="edge"><title>e25&#45;&gt;e26</title>
<path fill="none" stroke="black" d="M1661.07,-71.8761C1647.34,-62.8083 1630.29,-51.5523 1615.46,-41.7592"/>
<polygon fill="black" stroke="black" points="1617.3,-38.7798 1607.03,-36.1898 1613.45,-44.621 1617.3,-38.7798"/>
</g>
<!-- e27 -->
<g id="node29" class="node"><title>e27</title>
<polygon fill="none" stroke="black" points="1748,-36 1626,-36 1626,-0 1748,-0 1748,-36"/>
<text text-anchor="middle" x="1687" y="-14.3" font-family="Times New Roman,serif" font-size="14.00"> Pepito G?menez4 </text>
</g>
<!-- e25&#45;&gt;e27 -->
<g id="edge28" class="edge"><title>e25&#45;&gt;e27</title>
<path fill="none" stroke="black" d="M1687,-71.6966C1687,-63.9827 1687,-54.7125 1687,-46.1124"/>
<polygon fill="black" stroke="black" points="1690.5,-46.1043 1687,-36.1043 1683.5,-46.1044 1690.5,-46.1043"/>
</g>
<!-- e28 -->
<g id="node30" class="node"><title>e28</title>
<polygon fill="none" stroke="black" points="1852,-36 1766,-36 1766,-0 1852,-0 1852,-36"/>
<text text-anchor="middle" x="1809" y="-14.3" font-family="Times New Roman,serif" font-size="14.00"> 02/10/2012 </text>
</g>
<!-- e25&#45;&gt;e28 -->
<g id="edge29" class="edge"><title>e25&#45;&gt;e28</title>
<path fill="none" stroke="black" d="M1716.84,-71.8761C1732.94,-62.6388 1753,-51.1308 1770.29,-41.2116"/>
<polygon fill="black" stroke="black" points="1772.11,-44.2023 1779.04,-36.1898 1768.63,-38.1307 1772.11,-44.2023"/>
</g>
<!-- e30 -->
<g id="node32" class="node"><title>e30</title>
<polygon fill="none" stroke="black" points="2039,-108 1905,-108 1905,-72 2039,-72 2039,-108"/>
<text text-anchor="middle" x="1972" y="-86.3" font-family="Times New Roman,serif" font-size="14.00">VALORES TABLA </text>
</g>
<!-- e29&#45;&gt;e30 -->
<g id="edge31" class="edge"><title>e29&#45;&gt;e30</title>
<path fill="none" stroke="black" d="M1948.66,-143.697C1952.19,-135.728 1956.46,-126.1 1960.37,-117.264"/>
<polygon fill="black" stroke="black" points="1963.58,-118.665 1964.43,-108.104 1957.18,-115.831 1963.58,-118.665"/>
</g>
<!-- e31 -->
<g id="node33" class="node"><title>e31</title>
<polygon fill="none" stroke="black" points="1924,-36 1870,-36 1870,-0 1924,-0 1924,-36"/>
<text text-anchor="middle" x="1897" y="-14.3" font-family="Times New Roman,serif" font-size="14.00"> 5 </text>
</g>
<!-- e30&#45;&gt;e31 -->
<g id="edge32" class="edge"><title>e30&#45;&gt;e31</title>
<path fill="none" stroke="black" d="M1953.46,-71.6966C1944.2,-63.0503 1932.84,-52.4486 1922.74,-43.027"/>
<polygon fill="black" stroke="black" points="1925.02,-40.3688 1915.33,-36.1043 1920.25,-45.4863 1925.02,-40.3688"/>
</g>
<!-- e32 -->
<g id="node34" class="node"><title>e32</title>
<polygon fill="none" stroke="black" points="2064,-36 1942,-36 1942,-0 2064,-0 2064,-36"/>
<text text-anchor="middle" x="2003" y="-14.3" font-family="Times New Roman,serif" font-size="14.00"> Pepito G?menez5 </text>
</g>
<!-- e30&#45;&gt;e32 -->
<g id="edge33" class="edge"><title>e30&#45;&gt;e32</title>
<path fill="none" stroke="black" d="M1979.66,-71.6966C1983.19,-63.7284 1987.46,-54.0995 1991.37,-45.2641"/>
<polygon fill="black" stroke="black" points="1994.58,-46.6651 1995.43,-36.1043 1988.18,-43.8306 1994.58,-46.6651"/>
</g>
<!-- e33 -->
<g id="node35" class="node"><title>e33</title>
<polygon fill="none" stroke="black" points="2168,-36 2082,-36 2082,-0 2168,-0 2168,-36"/>
<text text-anchor="middle" x="2125" y="-14.3" font-family="Times New Roman,serif" font-size="14.00"> 02/12/2012 </text>
</g>
<!-- e30&#45;&gt;e33 -->
<g id="edge34" class="edge"><title>e30&#45;&gt;e33</title>
<path fill="none" stroke="black" d="M2009.43,-71.8761C2030.25,-62.3492 2056.35,-50.4068 2078.48,-40.2833"/>
<polygon fill="black" stroke="black" points="2080.06,-43.4115 2087.69,-36.0683 2077.14,-37.0461 2080.06,-43.4115"/>
</g>
<!-- e35 -->
<g id="node37" class="node"><title>e35</title>
<polygon fill="none" stroke="black" points="2333,-108 2199,-108 2199,-72 2333,-72 2333,-108"/>
<text text-anchor="middle" x="2266" y="-86.3" font-family="Times New Roman,serif" font-size="14.00">VALORES TABLA </text>
</g>
<!-- e34&#45;&gt;e35 -->
<g id="edge36" class="edge"><title>e34&#45;&gt;e35</title>
<path fill="none" stroke="black" d="M2212.55,-143.697C2221.23,-135.135 2231.86,-124.656 2241.35,-115.304"/>
<polygon fill="black" stroke="black" points="2243.99,-117.617 2248.65,-108.104 2239.07,-112.633 2243.99,-117.617"/>
</g>
<!-- e36 -->
<g id="node38" class="node"><title>e36</title>
<polygon fill="none" stroke="black" points="2240,-36 2186,-36 2186,-0 2240,-0 2240,-36"/>
<text text-anchor="middle" x="2213" y="-14.3" font-family="Times New Roman,serif" font-size="14.00"> 6 </text>
</g>
<!-- e35&#45;&gt;e36 -->
<g id="edge37" class="edge"><title>e35&#45;&gt;e36</title>
<path fill="none" stroke="black" d="M2252.9,-71.6966C2246.61,-63.3893 2238.95,-53.2771 2232.04,-44.1407"/>
<polygon fill="black" stroke="black" points="2234.78,-41.9642 2225.95,-36.1043 2229.2,-46.1897 2234.78,-41.9642"/>
</g>
<!-- e37 -->
<g id="node39" class="node"><title>e37</title>
<polygon fill="none" stroke="black" points="2380,-36 2258,-36 2258,-0 2380,-0 2380,-36"/>
<text text-anchor="middle" x="2319" y="-14.3" font-family="Times New Roman,serif" font-size="14.00"> Pepito G?menez6 </text>
</g>
<!-- e35&#45;&gt;e37 -->
<g id="edge38" class="edge"><title>e35&#45;&gt;e37</title>
<path fill="none" stroke="black" d="M2279.1,-71.6966C2285.39,-63.3893 2293.05,-53.2771 2299.96,-44.1407"/>
<polygon fill="black" stroke="black" points="2302.8,-46.1897 2306.05,-36.1043 2297.22,-41.9642 2302.8,-46.1897"/>
</g>
<!-- e38 -->
<g id="node40" class="node"><title>e38</title>
<polygon fill="none" stroke="black" points="2484,-36 2398,-36 2398,-0 2484,-0 2484,-36"/>
<text text-anchor="middle" x="2441" y="-14.3" font-family="Times New Roman,serif" font-size="14.00"> 02/12/2012 </text>
</g>
<!-- e35&#45;&gt;e38 -->
<g id="edge39" class="edge"><title>e35&#45;&gt;e38</title>
<path fill="none" stroke="black" d="M2308.81,-71.8761C2332.95,-62.2216 2363.28,-50.0865 2388.81,-39.8775"/>
<polygon fill="black" stroke="black" points="2390.34,-43.032 2398.33,-36.0683 2387.74,-36.5326 2390.34,-43.032"/>
</g>
<!-- e40 -->
<g id="node42" class="node"><title>e40</title>
<polygon fill="none" stroke="black" points="2622,-108 2488,-108 2488,-72 2622,-72 2622,-108"/>
<text text-anchor="middle" x="2555" y="-86.3" font-family="Times New Roman,serif" font-size="14.00">VALORES TABLA </text>
</g>
<!-- e39&#45;&gt;e40 -->
<g id="edge41" class="edge"><title>e39&#45;&gt;e40</title>
<path fill="none" stroke="black" d="M2474.93,-143.876C2488.66,-134.808 2505.71,-123.552 2520.54,-113.759"/>
<polygon fill="black" stroke="black" points="2522.55,-116.621 2528.97,-108.19 2518.7,-110.78 2522.55,-116.621"/>
</g>
<!-- e41 -->
<g id="node43" class="node"><title>e41</title>
<polygon fill="none" stroke="black" points="2556,-36 2502,-36 2502,-0 2556,-0 2556,-36"/>
<text text-anchor="middle" x="2529" y="-14.3" font-family="Times New Roman,serif" font-size="14.00"> 7 </text>
</g>
<!-- e40&#45;&gt;e41 -->
<g id="edge42" class="edge"><title>e40&#45;&gt;e41</title>
<path fill="none" stroke="black" d="M2548.57,-71.6966C2545.64,-63.8132 2542.11,-54.3042 2538.86,-45.5464"/>
<polygon fill="black" stroke="black" points="2542.12,-44.2599 2535.35,-36.1043 2535.55,-46.6973 2542.12,-44.2599"/>
</g>
<!-- e42 -->
<g id="node44" class="node"><title>e42</title>
<polygon fill="none" stroke="black" points="2696,-36 2574,-36 2574,-0 2696,-0 2696,-36"/>
<text text-anchor="middle" x="2635" y="-14.3" font-family="Times New Roman,serif" font-size="14.00"> Pepito G?menez7 </text>
</g>
<!-- e40&#45;&gt;e42 -->
<g id="edge43" class="edge"><title>e40&#45;&gt;e42</title>
<path fill="none" stroke="black" d="M2574.78,-71.6966C2584.75,-62.9655 2597.01,-52.2405 2607.86,-42.7503"/>
<polygon fill="black" stroke="black" points="2610.23,-45.3234 2615.45,-36.1043 2605.62,-40.0554 2610.23,-45.3234"/>
</g>
<!-- e43 -->
<g id="node45" class="node"><title>e43</title>
<polygon fill="none" stroke="black" points="2800,-36 2714,-36 2714,-0 2800,-0 2800,-36"/>
<text text-anchor="middle" x="2757" y="-14.3" font-family="Times New Roman,serif" font-size="14.00"> 02/02/2012 </text>
</g>
<!-- e40&#45;&gt;e43 -->
<g id="edge44" class="edge"><title>e40&#45;&gt;e43</title>
<path fill="none" stroke="black" d="M2604.16,-71.9656C2634.4,-61.4852 2673.15,-48.0562 2704.07,-37.3427"/>
<polygon fill="black" stroke="black" points="2705.51,-40.5484 2713.81,-33.9669 2703.21,-33.9343 2705.51,-40.5484"/>
</g>
<!-- e45 -->
<g id="node47" class="node"><title>e45</title>
<polygon fill="none" stroke="black" points="2789,-108 2717,-108 2717,-72 2789,-72 2789,-108"/>
<text text-anchor="middle" x="2753" y="-86.3" font-family="Times New Roman,serif" font-size="14.00">SETERS </text>
</g>
<!-- e44&#45;&gt;e45 -->
<g id="edge46" class="edge"><title>e44&#45;&gt;e45</title>
<path fill="none" stroke="black" d="M2714.61,-143.697C2720.6,-135.474 2727.88,-125.483 2734.48,-116.421"/>
<polygon fill="black" stroke="black" points="2737.48,-118.248 2740.54,-108.104 2731.82,-114.126 2737.48,-118.248"/>
</g>
<!-- e47 -->
<g id="node49" class="node"><title>e47</title>
<polygon fill="none" stroke="black" points="3026.5,-108 2909.5,-108 2909.5,-72 3026.5,-72 3026.5,-108"/>
<text text-anchor="middle" x="2968" y="-86.3" font-family="Times New Roman,serif" font-size="14.00">CONDICIONAL </text>
</g>
<!-- e44&#45;&gt;e47 -->
<g id="edge48" class="edge"><title>e44&#45;&gt;e47</title>
<path fill="none" stroke="black" d="M2766.73,-143.966C2806.94,-133.385 2858.56,-119.8 2899.46,-109.037"/>
<polygon fill="black" stroke="black" points="2900.57,-112.365 2909.35,-106.435 2898.78,-105.596 2900.57,-112.365"/>
</g>
<!-- e46 -->
<g id="node48" class="node"><title>e46</title>
<polygon fill="none" stroke="black" points="2959.5,-36 2818.5,-36 2818.5,-0 2959.5,-0 2959.5,-36"/>
<text text-anchor="middle" x="2889" y="-14.3" font-family="Times New Roman,serif" font-size="14.00"> nombre &#45;&gt; Alejandro </text>
</g>
<!-- e45&#45;&gt;e46 -->
<g id="edge47" class="edge"><title>e45&#45;&gt;e46</title>
<path fill="none" stroke="black" d="M2786.27,-71.8761C2804.46,-62.5117 2827.19,-50.8136 2846.64,-40.803"/>
<polygon fill="black" stroke="black" points="2848.31,-43.8782 2855.6,-36.1898 2845.11,-37.6543 2848.31,-43.8782"/>
</g>
<!-- e48 -->
<g id="node50" class="node"><title>e48</title>
<polygon fill="none" stroke="black" points="3098,-36 2978,-36 2978,-0 3098,-0 3098,-36"/>
<text text-anchor="middle" x="3038" y="-14.3" font-family="Times New Roman,serif" font-size="14.00"> id_estudiante &gt; 4 </text>
</g>
<!-- e47&#45;&gt;e48 -->
<g id="edge49" class="edge"><title>e47&#45;&gt;e48</title>
<path fill="none" stroke="black" d="M2985.3,-71.6966C2993.86,-63.135 3004.34,-52.6562 3013.7,-43.3045"/>
<polygon fill="black" stroke="black" points="3016.3,-45.6503 3020.9,-36.1043 3011.35,-40.7005 3016.3,-45.6503"/>
</g>
<!-- e51 -->
<g id="node53" class="node"><title>e51</title>
<polygon fill="none" stroke="black" points="3191.5,-108 3096.5,-108 3096.5,-72 3191.5,-72 3191.5,-108"/>
<text text-anchor="middle" x="3144" y="-86.3" font-family="Times New Roman,serif" font-size="14.00">COLUMNAS</text>
</g>
<!-- e50&#45;&gt;e51 -->
<g id="edge52" class="edge"><title>e50&#45;&gt;e51</title>
<path fill="none" stroke="black" d="M3145.51,-143.697C3145.29,-135.983 3145.02,-126.712 3144.77,-118.112"/>
<polygon fill="black" stroke="black" points="3148.27,-118 3144.49,-108.104 3141.28,-118.2 3148.27,-118"/>
</g>
<!-- e53 -->
<g id="node55" class="node"><title>e53</title>
<polygon fill="none" stroke="black" points="3280.5,-108 3209.5,-108 3209.5,-72 3280.5,-72 3280.5,-108"/>
<text text-anchor="middle" x="3245" y="-86.3" font-family="Times New Roman,serif" font-size="14.00">TABLAS</text>
</g>
<!-- e50&#45;&gt;e53 -->
<g id="edge54" class="edge"><title>e50&#45;&gt;e53</title>
<path fill="none" stroke="black" d="M3170.22,-143.876C3182.92,-134.893 3198.66,-123.763 3212.42,-114.034"/>
<polygon fill="black" stroke="black" points="3214.54,-116.821 3220.69,-108.19 3210.5,-111.105 3214.54,-116.821"/>
</g>
<!-- e52 -->
<g id="node54" class="node"><title>e52</title>
<polygon fill="none" stroke="black" points="3171,-36 3117,-36 3117,-0 3171,-0 3171,-36"/>
<text text-anchor="middle" x="3144" y="-14.3" font-family="Times New Roman,serif" font-size="14.00">*</text>
</g>
<!-- e51&#45;&gt;e52 -->
<g id="edge53" class="edge"><title>e51&#45;&gt;e52</title>
<path fill="none" stroke="black" d="M3144,-71.6966C3144,-63.9827 3144,-54.7125 3144,-46.1124"/>
<polygon fill="black" stroke="black" points="3147.5,-46.1043 3144,-36.1043 3140.5,-46.1044 3147.5,-46.1043"/>
</g>
<!-- e54 -->
<g id="node56" class="node"><title>e54</title>
<polygon fill="none" stroke="black" points="3289,-36 3201,-36 3201,-0 3289,-0 3289,-36"/>
<text text-anchor="middle" x="3245" y="-14.3" font-family="Times New Roman,serif" font-size="14.00"> Estudiantes </text>
</g>
<!-- e53&#45;&gt;e54 -->
<g id="edge55" class="edge"><title>e53&#45;&gt;e54</title>
<path fill="none" stroke="black" d="M3245,-71.6966C3245,-63.9827 3245,-54.7125 3245,-46.1124"/>
<polygon fill="black" stroke="black" points="3248.5,-46.1043 3245,-36.1043 3241.5,-46.1044 3248.5,-46.1043"/>
</g>
</g>
</svg>
